HIERARCHY
ROOT Hips
{
	OFFSET	0.000000	0.000000	0.000000
	CHANNELS 6 Xposition Yposition Zposition Zrotation Xrotation Yrotation
	JOINT LeftHip
	{
		OFFSET	10.628554	-12.025425	0.145870
		CHANNELS 3 Zrotation Xrotation Yrotation
		JOINT LeftKnee
		{
			OFFSET	0.063751	-35.282885	-0.125152
			CHANNELS 3 Zrotation Xrotation Yrotation
			JOINT LeftAnkle
			{
				OFFSET	-1.605697	-35.971224	-3.706495
				CHANNELS 3 Zrotation Xrotation Yrotation
				JOINT LeftAnkleEnd
				{
					OFFSET	0.623245	-4.766945	-2.510598
					CHANNELS 3 Zrotation Xrotation Yrotation
					End Site
					{
						OFFSET	0.568289	0.000024	14.236648
					}
				}
			}
		}
	}
	JOINT RightHip
	{
		OFFSET	-10.628554	-12.025425	0.145870
		CHANNELS 3 Zrotation Xrotation Yrotation
		JOINT RightKnee
		{
			OFFSET	-0.063751	-35.282885	-0.125152
			CHANNELS 3 Zrotation Xrotation Yrotation
			JOINT RightAnkle
			{
				OFFSET	1.605697	-35.971224	-3.706495
				CHANNELS 3 Zrotation Xrotation Yrotation
				JOINT RightAnkleEnd
				{
					OFFSET	-0.623245	-4.766945	-2.510598
					CHANNELS 3 Zrotation Xrotation Yrotation
					End Site
					{
						OFFSET	-0.568289	0.000024	14.236648
					}
				}
			}
		}
	}
	JOINT Chest
	{
		OFFSET	0.000000	12.026417	-0.714291
		CHANNELS 3 Zrotation Xrotation Yrotation
		JOINT Chest1
		{
			OFFSET	0.000000	9.058883	0.000000
			CHANNELS 3 Zrotation Xrotation Yrotation
			JOINT LeftCollar
			{
				OFFSET	3.957193	15.332403	-1.829478
				CHANNELS 3 Zrotation Xrotation Yrotation
				JOINT LeftShoulder
				{
					OFFSET	10.550170	-2.240910	0.518958
					CHANNELS 3 Zrotation Xrotation Yrotation
					JOINT LeftElbow
					{
						OFFSET	4.297553	-25.599643	-0.166695
						CHANNELS 3 Zrotation Xrotation Yrotation
						JOINT LeftWrist
						{
							OFFSET	2.822981	-22.410623	4.642079
							CHANNELS 3 Zrotation Xrotation Yrotation
							End Site
							{
								OFFSET	1.134968	-7.923276	1.802445
							}
						}
					}
				}
			}
			JOINT RightCollar
			{
				OFFSET	-3.957193	15.332403	-1.829478
				CHANNELS 3 Zrotation Xrotation Yrotation
				JOINT RightShoulder
				{
					OFFSET	-10.550170	-2.240910	0.518958
					CHANNELS 3 Zrotation Xrotation Yrotation
					JOINT RightElbow
					{
						OFFSET	-4.297553	-25.599643	-0.166695
						CHANNELS 3 Zrotation Xrotation Yrotation
						JOINT RightWrist
						{
							OFFSET	-2.822981	-22.410623	4.642079
							CHANNELS 3 Zrotation Xrotation Yrotation
							End Site
							{
								OFFSET	-1.134968	-7.923276	1.802445
							}
						}
					}
				}
			}
			JOINT Neck
			{
				OFFSET	0.000000	20.347508	-0.117170
				CHANNELS 3 Zrotation Xrotation Yrotation
				JOINT Head
				{
					OFFSET	0.000000	9.048420	0.880189
					CHANNELS 3 Zrotation Xrotation Yrotation
					End Site
					{
						OFFSET	0.000000	13.896797	-0.059005
					}
				}
			}
		}
	}
}
MOTION
Frames:     18
Frame Time: 0.016667
0.000000	90.598538	0.000000	-0.061795	0.173401	-0.146597	0.065161	-0.136662	0.358334	0.000128	-0.038655	-0.104014	-0.003285	0.002089	-0.107531	0.	0.	0.	0.066826	-0.174844	0.172412	0.005526	-0.047606	-0.033103	-0.010138	0.049218	0.007496	0.	0.	0.	0.040291	-0.037667	0.174178	0.052066	0.163930	-0.201741	-0.043230	-0.085188	0.181927	0.021298	-0.131304	-0.477833	0.073505	-0.002835	-0.743968	0.669778	0.384054	-0.247902	-0.296691	0.065207	-0.342704	0.253589	-0.171738	0.439741	-0.120816	0.096008	0.005244	-0.579587	0.077100	0.162697	-0.298292	0.094906	-0.078837	1.132827	1.022333	-0.339162	
0.000000	90.598538	0.000000	-0.061795	0.173401	-0.146597	0.065161	-0.136662	0.358334	0.000128	-0.038655	-0.104014	-0.003285	0.002089	-0.107531	0.	0.	0.	0.066826	-0.174844	0.172412	0.005526	-0.047606	-0.033103	-0.010138	0.049218	0.007496	0.	0.	0.	0.040291	-0.037667	0.174178	0.052066	0.163930	-0.201741	-0.043230	-0.085188	0.181927	0.021298	-0.131304	-0.477833	0.073505	-0.002835	-0.743968	0.669778	0.384054	-0.247902	-0.296691	0.065207	-0.342704	0.253589	-0.171738	0.439741	-0.119047	0.090920	-0.025809	-0.581399	0.081873	0.193798	-0.302328	0.094136	-0.095228	1.144742	1.041467	-0.325484	
0.000000	90.598538	0.000000	-0.061795	0.173401	-0.146597	0.065161	-0.136662	0.358334	0.000128	-0.038655	-0.104014	-0.003285	0.002089	-0.107531	0.	0.	0.	0.066826	-0.174844	0.172412	0.005526	-0.047606	-0.033103	-0.010138	0.049218	0.007496	0.	0.	0.	0.040291	-0.037667	0.174178	0.052066	0.163930	-0.201741	-0.043230	-0.085188	0.181927	0.021298	-0.131304	-0.477833	0.073505	-0.002835	-0.743968	0.669778	0.384054	-0.247902	-0.296691	0.065207	-0.342704	0.253589	-0.171738	0.439741	-0.118171	0.088394	-0.041231	-0.582300	0.084241	0.209244	-0.302328	0.094136	-0.095228	1.151838	1.053449	-0.330270	
0.000000	90.598538	0.000000	-0.061795	0.173401	-0.146597	0.065161	-0.136662	0.358334	0.000128	-0.038655	-0.104014	-0.003285	0.002089	-0.107531	0.	0.	0.	0.066826	-0.174844	0.172412	0.005526	-0.047606	-0.033103	-0.010138	0.049218	0.007496	0.	0.	0.	0.040291	-0.037667	0.174178	0.052066	0.163930	-0.201741	-0.043230	-0.085188	0.181927	0.021298	-0.131304	-0.477833	0.073505	-0.002835	-0.743968	0.669778	0.384054	-0.247902	-0.296691	0.065207	-0.342704	0.253589	-0.171738	0.439741	-0.117747	0.087174	-0.048696	-0.582736	0.085384	0.216720	-0.302328	0.094136	-0.095228	1.157430	1.058408	-0.337044	
0.000000	90.598538	0.000000	-0.061795	0.173401	-0.146597	0.065161	-0.136662	0.358334	0.000128	-0.038655	-0.104014	-0.003285	0.002089	-0.107531	0.	0.	0.	0.066826	-0.174844	0.172412	0.005526	-0.047606	-0.033103	-0.010138	0.049218	0.007496	0.	0.	0.	0.040291	-0.037667	0.174178	0.052066	0.163930	-0.201741	-0.043230	-0.085188	0.181927	0.021298	-0.131304	-0.477833	0.072969	-0.002555	-0.737470	0.670362	0.383705	-0.254394	-0.296691	0.065207	-0.342704	0.253589	-0.171738	0.439741	-0.117747	0.087174	-0.048696	-0.582736	0.085384	0.216720	-0.302328	0.094136	-0.095228	1.174467	1.073770	-0.357505	
0.000000	90.598538	0.000000	-0.061795	0.173401	-0.146597	0.065161	-0.136662	0.358334	0.000128	-0.038655	-0.104014	-0.003285	0.002089	-0.107531	0.	0.	0.	0.066826	-0.174844	0.172412	0.005526	-0.047606	-0.033103	-0.010138	0.049218	0.007496	0.	0.	0.	0.040291	-0.037667	0.174178	0.052066	0.163930	-0.201741	-0.043230	-0.085188	0.181927	0.021298	-0.131304	-0.477833	0.072397	-0.002263	-0.730570	0.670983	0.383340	-0.261292	-0.296691	0.065207	-0.342704	0.253589	-0.171738	0.439741	-0.115906	0.081944	-0.080727	-0.584632	0.090286	0.248801	-0.302678	0.097376	-0.095297	1.179277	1.076751	-0.361245	
0.000000	90.598538	0.000000	-0.061795	0.173401	-0.146597	0.065161	-0.136662	0.358334	0.000128	-0.038655	-0.104014	-0.003285	0.002089	-0.107531	0.	0.	0.	0.066826	-0.174844	0.172412	0.005526	-0.047606	-0.033103	-0.010138	0.049218	0.007496	0.	0.	0.	0.040291	-0.037667	0.174178	0.052066	0.163930	-0.201741	-0.043230	-0.085188	0.181927	0.021298	-0.131304	-0.477833	0.071080	-0.001590	-0.714671	0.672415	0.382497	-0.277184	-0.296691	0.065207	-0.342704	0.253589	-0.171738	0.439741	-0.115906	0.081944	-0.080727	-0.584632	0.090286	0.248801	-0.304202	0.111197	-0.095593	1.190763	1.084811	-0.363945	
0.000000	90.598538	0.000000	-0.061795	0.173401	-0.146597	0.065161	-0.136662	0.358334	0.000128	-0.038655	-0.104014	-0.003285	0.002089	-0.107531	0.	0.	0.	0.066826	-0.174844	0.172412	0.005526	-0.047606	-0.033103	-0.010138	0.049218	0.007496	0.	0.	0.	0.040291	-0.037667	0.174178	0.052066	0.163930	-0.201741	-0.043230	-0.085188	0.181927	0.021298	-0.131304	-0.477833	0.068628	-0.000323	-0.685041	0.668179	0.374340	-0.282284	-0.296691	0.065207	-0.342704	0.253589	-0.171738	0.439741	-0.115906	0.081944	-0.080727	-0.586217	0.093376	0.258511	-0.305859	0.126058	-0.095907	1.199257	1.084937	-0.365562	
0.000000	90.598538	0.000000	-0.061795	0.173401	-0.146597	0.065161	-0.136662	0.358334	0.000128	-0.038655	-0.104014	-0.003285	0.002089	-0.107531	0.	0.	0.	0.066826	-0.174844	0.172412	0.005526	-0.047606	-0.033103	-0.010138	0.049218	0.007496	0.	0.	0.	0.040291	-0.037667	0.174178	0.052066	0.163930	-0.201741	-0.043230	-0.085188	0.181927	0.021298	-0.131304	-0.477833	0.066815	0.000613	-0.663119	0.667691	0.370834	-0.295477	-0.296691	0.065207	-0.342704	0.253589	-0.171738	0.439741	-0.115906	0.081944	-0.080727	-0.588535	0.097922	0.272782	-0.305859	0.126058	-0.095907	1.206198	1.100180	-0.367850	
0.000000	90.598538	0.000000	-0.061795	0.173401	-0.146597	0.065161	-0.136662	0.358334	0.000128	-0.038655	-0.104014	-0.003285	0.002089	-0.107531	0.	0.	0.	0.066826	-0.174844	0.172412	0.005526	-0.047606	-0.033103	-0.010138	0.049218	0.007496	0.	0.	0.	0.040291	-0.037667	0.174178	0.052066	0.163930	-0.201741	-0.043230	-0.085188	0.181927	0.021298	-0.131304	-0.477833	0.065902	0.001080	-0.652096	0.665942	0.367629	-0.296738	-0.296691	0.065207	-0.342704	0.253589	-0.171738	0.439741	-0.115906	0.081944	-0.080727	-0.589674	0.100151	0.279777	-0.307516	0.140924	-0.096213	1.211449	1.093165	-0.368391	
0.000000	90.598538	0.000000	-0.061795	0.173401	-0.146597	0.065161	-0.136662	0.358334	0.000128	-0.038655	-0.104014	-0.003285	0.002089	-0.107531	0.	0.	0.	0.066826	-0.174844	0.172412	0.005526	-0.047606	-0.033103	-0.010138	0.049218	0.007496	0.	0.	0.	0.040291	-0.037667	0.174178	0.052066	0.163930	-0.201741	-0.043230	-0.085188	0.181927	0.021298	-0.131304	-0.477833	0.064083	0.002011	-0.630138	0.664821	0.361817	-0.296631	-0.296691	0.065207	-0.342704	0.253589	-0.171738	0.439741	-0.115906	0.081944	-0.080727	-0.590213	0.101220	0.283133	-0.310823	0.170390	-0.096825	1.225729	1.087761	-0.370761	
0.000000	90.598538	0.000000	-0.061795	0.173401	-0.146597	0.065161	-0.136662	0.358334	0.000128	-0.038655	-0.104014	-0.003285	0.002089	-0.107531	0.	0.	0.	0.066826	-0.174844	0.172412	0.005526	-0.047606	-0.033103	-0.010138	0.049218	0.007496	0.	0.	0.	0.040291	-0.037667	0.174178	0.052066	0.163930	-0.201741	-0.043230	-0.085188	0.181927	0.021101	-0.130868	-0.474608	0.061349	0.003088	-0.597879	0.673501	0.356700	-0.296467	-0.297578	0.074566	-0.340451	0.254526	-0.181100	0.437528	-0.115906	0.081944	-0.080727	-0.590213	0.101220	0.283133	-0.311206	0.173799	-0.096899	1.232981	1.099397	-0.372863	
0.000000	90.598538	0.000000	-0.061795	0.173401	-0.146597	0.065161	-0.136662	0.358334	0.000128	-0.038655	-0.104014	-0.003285	0.002089	-0.107531	0.	0.	0.	0.066826	-0.174844	0.172412	0.005526	-0.047606	-0.033103	-0.010138	0.049218	0.007496	0.	0.	0.	0.040291	-0.037667	0.174178	0.052066	0.163930	-0.201741	-0.043230	-0.085188	0.181927	0.020272	-0.129090	-0.461385	0.060158	0.002355	-0.586470	0.670315	0.350214	-0.301871	-0.298864	0.088114	-0.337186	0.255881	-0.194656	0.434328	-0.115906	0.081944	-0.080727	-0.590213	0.101220	0.283133	-0.302362	0.174637	-0.099307	1.230340	1.112304	-0.372520	
0.000000	90.598538	0.000000	-0.061795	0.173401	-0.146597	0.065161	-0.136662	0.358334	0.000128	-0.038655	-0.104014	-0.003285	0.002089	-0.107531	0.	0.	0.	0.066826	-0.174844	0.172412	0.005526	-0.047606	-0.033103	-0.010138	0.049218	0.007496	0.	0.	0.	0.040291	-0.037667	0.174178	0.052066	0.163930	-0.201741	-0.045057	-0.083461	0.184163	0.021463	-0.129456	-0.453494	0.058834	0.001994	-0.572852	0.675580	0.346817	-0.303444	-0.299558	0.095450	-0.335422	0.256613	-0.201997	0.432596	-0.115906	0.081944	-0.080727	-0.590213	0.101220	0.283133	-0.295920	0.175250	-0.101058	1.229863	1.124857	-0.372746	
0.000000	90.598538	0.000000	-0.061795	0.173401	-0.146597	0.065161	-0.136662	0.358334	0.000128	-0.038655	-0.104014	-0.003285	0.002089	-0.107531	0.	0.	0.	0.066826	-0.174844	0.172412	0.005526	-0.047606	-0.033103	-0.010138	0.049218	0.007496	0.	0.	0.	0.040291	-0.037667	0.174178	0.052066	0.163930	-0.201741	-0.052577	-0.076338	0.193364	0.028939	-0.136609	-0.462702	0.057903	0.002472	-0.561582	0.679665	0.345648	-0.302822	-0.300290	0.103140	-0.333569	0.257382	-0.209688	0.430778	-0.115906	0.081944	-0.080727	-0.590213	0.101220	0.283133	-0.282887	0.176521	-0.104610	1.219728	1.130141	-0.370188	
0.000000	90.598538	0.000000	-0.061795	0.173401	-0.146597	0.065161	-0.136662	0.358334	0.000128	-0.038655	-0.104014	-0.003285	0.002089	-0.107531	0.	0.	0.	0.066826	-0.174844	0.172412	0.005526	-0.047606	-0.033103	-0.010138	0.049218	0.007496	0.	0.	0.	0.040291	-0.037667	0.174178	0.052066	0.163930	-0.201741	-0.060552	-0.068788	0.203129	0.036863	-0.144191	-0.472475	0.056088	0.003412	-0.539559	0.687966	0.343359	-0.300811	-0.302582	0.127252	-0.327761	0.259790	-0.233813	0.425084	-0.115906	0.081944	-0.080727	-0.590213	0.101220	0.283133	-0.270480	0.177719	-0.107989	1.213285	1.142214	-0.368808	
0.000000	90.598538	0.000000	-0.061795	0.173401	-0.146597	0.065161	-0.136662	0.358334	0.000128	-0.038655	-0.104014	-0.003285	0.002089	-0.107531	0.	0.	0.	0.066826	-0.174844	0.172412	0.005526	-0.047606	-0.033103	-0.010138	0.049218	0.007496	0.	0.	0.	0.040291	-0.037667	0.174178	0.052066	0.163930	-0.201741	-0.069080	-0.060714	0.213572	0.045335	-0.152300	-0.482920	0.055182	0.003873	-0.528605	0.692072	0.342233	-0.299880	-0.304079	0.142982	-0.323966	0.261362	-0.249550	0.421365	-0.115906	0.081944	-0.080727	-0.590213	0.101220	0.283133	-0.258257	0.178892	-0.111328	1.204295	1.148307	-0.366571	
0.000000	90.598538	0.000000	-0.061795	0.173401	-0.146597	0.065161	-0.136662	0.358334	0.000128	-0.038655	-0.104014	-0.003285	0.002089	-0.107531	0.	0.	0.	0.066826	-0.174844	0.172412	0.005526	-0.047606	-0.033103	-0.010138	0.049218	0.007496	0.	0.	0.	0.040291	-0.037667	0.174178	0.052066	0.163930	-0.201741	-0.082249	-0.048250	0.229709	0.057804	-0.163488	-0.489103	0.051989	0.004495	-0.492489	0.708501	0.337393	-0.297905	-0.306251	0.165779	-0.318472	0.263637	-0.272360	0.415984	-0.115906	0.081944	-0.080727	-0.592519	0.104643	0.295852	-0.240932	0.180547	-0.116062	1.201904	1.179757	-0.366843	
